<svg width="960" height="1200" viewBox="0 0 960 1200" fill="none" xmlns="http://www.w3.org/2000/svg">
  <rect width="960" height="1200" rx="72" fill="#090C12"/>
  <circle cx="480" cy="242" r="284" fill="url(#paint0_radial)" fill-opacity="0.56"/>
  <circle cx="755" cy="188" r="112" fill="url(#paint1_radial)" fill-opacity="0.45"/>
  <circle cx="240" cy="918" r="172" fill="url(#paint2_radial)" fill-opacity="0.28"/>
  <rect x="108" y="144" width="744" height="912" rx="56" fill="url(#paint3_linear)" stroke="#FFFFFF" stroke-opacity="0.12"/>
  <path d="M480 336C580.515 336 662 417.485 662 518V546C662 620.006 630.016 690.487 574.16 739.056L508.36 796.266C491.595 810.837 466.405 810.837 449.64 796.266L383.84 739.056C327.984 690.487 296 620.006 296 546V518C296 417.485 377.485 336 478 336H480Z" fill="url(#paint4_linear)" stroke="#FFFFFF" stroke-opacity="0.08"/>
  <circle cx="480" cy="470" r="134" fill="url(#paint5_linear)"/>
  <path d="M298 1024C334.533 894.32 396.61 829.48 484.232 829.48C571.853 829.48 632.442 894.32 666 1024H298Z" fill="url(#paint6_linear)"/>
  <text x="480" y="176" text-anchor="middle" fill="#F4F7FA" fill-opacity="0.86" font-family="Inter, Arial, sans-serif" font-size="48" letter-spacing="16">PORTRAIT</text>
  <text x="480" y="1098" text-anchor="middle" fill="#F4F7FA" fill-opacity="0.92" font-family="Inter, Arial, sans-serif" font-size="124" font-weight="700" letter-spacing="14">MK</text>
  <defs>
    <radialGradient id="paint0_radial" cx="0" cy="0" r="1" gradientUnits="userSpaceOnUse" gradientTransform="translate(480 242) rotate(90) scale(284)">
      <stop stop-color="#8FCBFF"/>
      <stop offset="1" stop-color="#8FCBFF" stop-opacity="0"/>
    </radialGradient>
    <radialGradient id="paint1_radial" cx="0" cy="0" r="1" gradientUnits="userSpaceOnUse" gradientTransform="translate(755 188) rotate(90) scale(112)">
      <stop stop-color="#FF7272"/>
      <stop offset="1" stop-color="#FF7272" stop-opacity="0"/>
    </radialGradient>
    <radialGradient id="paint2_radial" cx="0" cy="0" r="1" gradientUnits="userSpaceOnUse" gradientTransform="translate(240 918) rotate(90) scale(172)">
      <stop stop-color="#93AFFF"/>
      <stop offset="1" stop-color="#93AFFF" stop-opacity="0"/>
    </radialGradient>
    <linearGradient id="paint3_linear" x1="480" y1="144" x2="480" y2="1056" gradientUnits="userSpaceOnUse">
      <stop stop-color="#111725"/>
      <stop offset="1" stop-color="#090C12"/>
    </linearGradient>
    <linearGradient id="paint4_linear" x1="479" y1="336" x2="479" y2="811" gradientUnits="userSpaceOnUse">
      <stop stop-color="#1B2436"/>
      <stop offset="1" stop-color="#0B0F18"/>
    </linearGradient>
    <linearGradient id="paint5_linear" x1="480" y1="336" x2="480" y2="604" gradientUnits="userSpaceOnUse">
      <stop stop-color="#B9D6FF"/>
      <stop offset="1" stop-color="#566983"/>
    </linearGradient>
    <linearGradient id="paint6_linear" x1="482" y1="829.48" x2="482" y2="1024" gradientUnits="userSpaceOnUse">
      <stop stop-color="#131B2B"/>
      <stop offset="1" stop-color="#090C12"/>
    </linearGradient>
  </defs>
</svg>
